<svg width="74" height="74" viewBox="0 0 74 74" fill="none" xmlns="http://www.w3.org/2000/svg">
<path d="M68.14 22.6C68.14 17.92 66.52 13.96 63.28 10.72C60.04 7.48 56.08 5.86 51.4 5.86V1C57.4 1 62.5 3.1 66.7 7.3C70.9 11.5 73 16.6 73 22.6H68.14ZM58.6 22.6C58.6 20.62 57.8956 18.9256 56.4868 17.5168C55.078 16.108 53.3824 15.4024 51.4 15.4V10.54C54.7 10.54 57.5056 11.71 59.8168 14.05C62.128 16.39 63.3424 19.24 63.46 22.6H58.6ZM37 60.4C41.5 60.4 45.3256 58.8256 48.4768 55.6768C51.628 52.528 53.2024 48.7024 53.2 44.2C53.1976 39.6976 51.6232 35.8732 48.4768 32.7268C45.3304 29.5804 41.5048 28.0048 37 28C32.4952 27.9952 28.6708 29.5708 25.5268 32.7268C22.3828 35.8828 20.8072 39.7072 20.8 44.2C20.7928 48.6928 22.3684 52.5184 25.5268 55.6768C28.6852 58.8352 32.5096 60.4096 37 60.4ZM37 53.2C34.48 53.2 32.35 52.33 30.61 50.59C28.87 48.85 28 46.72 28 44.2C28 41.68 28.87 39.55 30.61 37.81C32.35 36.07 34.48 35.2 37 35.2C39.52 35.2 41.65 36.07 43.39 37.81C45.13 39.55 46 41.68 46 44.2C46 46.72 45.13 48.85 43.39 50.59C41.65 52.33 39.52 53.2 37 53.2ZM8.2 73C6.22 73 4.5256 72.2956 3.1168 70.8868C1.708 69.478 1.0024 67.7824 1 65.8V22.6C1 20.62 1.7056 18.9256 3.1168 17.5168C4.528 16.108 6.2224 15.4024 8.2 15.4H19.54L26.2 8.2H47.8V19C49.78 19 51.4756 19.7056 52.8868 21.1168C54.298 22.528 55.0024 24.2224 55 26.2H73V65.8C73 67.78 72.2956 69.4756 70.8868 70.8868C69.478 72.298 67.7824 73.0024 65.8 73H8.2Z" fill="white"/>
</svg>
