<svg width="206" height="207" viewBox="0 0 206 207" fill="none" xmlns="http://www.w3.org/2000/svg">
<g clip-path="url(#clip0_100_472)">
<path d="M155.375 24.5875L49.625 66.8875C39.9312 70.4125 32 82.75 32 93.325V169.994C32 180.569 39.9312 185.856 49.625 182.331L155.375 140.031C165.069 136.506 173 124.169 173 113.594V36.925C173 26.35 165.069 21.0625 155.375 24.5875ZM160.663 47.5L107.788 129.456L48.7438 89.8C47.8625 88.9188 45.2188 86.275 46.9813 83.6313C48.7437 80.1063 53.15 81.8688 53.15 81.8688L108.669 102.138C108.669 102.138 150.969 46.6188 153.613 43.0938C154.494 41.3313 157.137 40.45 159.781 42.2125C162.425 43.975 161.544 46.6188 160.663 47.5Z" fill="#67C16D"/>
</g>
<defs>
<clipPath id="clip0_100_472">
<rect width="206" height="206" fill="white" transform="translate(0 0.5)"/>
</clipPath>
</defs>
</svg>
